# xmcd CD database file
#
# Track frame offsets:
#	150
#	15664
#	36133
#	55962
#	70496
#	88821
#	107941
#	118022
#	136351
#	150703
#	171122
#
# Disc length: 2437 seconds
#
# Revision: 0
# Processed by: cddbd v1.5.2PL0 Copyright (c) Steve Scherf et al.
# Submitted via: CDex 1.51
#
DISCID=9809830b
DTITLE=Mick Harvey - Sketches from the Book of the Dead
DYEAR=2011
DGENRE=
TTITLE0=October boy
TTITLE1=The ballad of Jay Givens
TTITLE2=Two paintings
TTITLE3=Rhymeless
TTITLE4=Frankie T. and Frankie C.
TTITLE5=A Place called passion
TTITLE6=To each his own
TTITLE7=The bells never rang
TTITLE8=That`s all, Paul
TTITLE9=How could I leave you?
TTITLE10=Famous last words
EXTD=YEAR: 2011
EXTT0=
EXTT1=
EXTT2=
EXTT3=
EXTT4=
EXTT5=
EXTT6=
EXTT7=
EXTT8=
EXTT9=
EXTT10=
PLAYORDER=
